<svg width="69" height="28" viewBox="0 0 69 28" fill="none" xmlns="http://www.w3.org/2000/svg">
<path d="M3.54668 13.9702L0.976279 0.208754C0.968126 0.183107 0.966565 0.155821 0.97174 0.129411C0.976914 0.103002 0.988657 0.0783229 1.00588 0.057649C1.02311 0.0369751 1.04527 0.0209736 1.07031 0.0111218C1.09536 0.00127006 1.12248 -0.00211473 1.14918 0.00127961H5.25028C5.3007 -0.00261457 5.35065 0.0132486 5.38958 0.0455133C5.42852 0.077778 5.45338 0.123916 5.45891 0.174176L6.81327 9.45181H7.50486L8.86037 0.174176C8.86562 0.123797 8.8904 0.0774824 8.9294 0.0451616C8.9684 0.0128407 9.01852 -0.00291307 9.06899 0.00127961H13.1689C13.1957 -0.00201864 13.2228 0.00141847 13.2478 0.0112766C13.2729 0.0211347 13.2951 0.0371014 13.3124 0.0577229C13.3297 0.0783444 13.3415 0.102965 13.3469 0.129345C13.3522 0.155724 13.3509 0.183021 13.343 0.208754L11.0838 13.9702L13.343 27.6255C13.3511 27.6514 13.3527 27.6788 13.3474 27.7053C13.3422 27.7319 13.3303 27.7567 13.313 27.7774C13.2957 27.7982 13.2734 27.8143 13.2482 27.8242C13.2231 27.8341 13.1958 27.8376 13.1689 27.8342H9.07245C9.02179 27.8384 8.97152 27.8224 8.93249 27.7899C8.89346 27.7573 8.86879 27.7107 8.86382 27.6601L7.50831 18.3825H6.81673L5.46237 27.6601C5.45711 27.7106 5.43237 27.757 5.39341 27.7895C5.35445 27.822 5.30434 27.8381 5.25374 27.8342H1.15494C1.12819 27.8373 1.10107 27.8338 1.07605 27.8237C1.05104 27.8137 1.02893 27.7976 1.01174 27.7769C0.994553 27.7562 0.982829 27.7314 0.977641 27.705C0.972453 27.6786 0.973967 27.6512 0.982043 27.6255L3.54668 13.9702Z" fill="#49D0FF"/>
<path d="M14.4749 0.17422C14.4735 0.151165 14.4771 0.128087 14.4853 0.106503C14.4935 0.0849192 14.5062 0.0653173 14.5225 0.048987C14.5389 0.0326568 14.5585 0.0199682 14.5801 0.0117533C14.6016 0.00353848 14.6247 -1.63177e-05 14.6478 0.00132368H18.818C18.8412 -6.3784e-07 18.8643 0.00355568 18.8859 0.0117604C18.9076 0.0199651 18.9272 0.032635 18.9436 0.0489448C18.9601 0.0652546 18.9729 0.0848379 18.9812 0.106422C18.9896 0.128007 18.9933 0.151107 18.9921 0.17422L20.0687 15.6381H20.7603L21.6708 0.17422C21.6708 0.035903 21.74 0.00132368 21.8449 0.00132368H24.972C25.0758 0.00132368 25.1461 0.035903 25.1461 0.17422L26.0509 15.6381H26.7425L27.8202 0.17422C27.8188 0.151062 27.8224 0.12788 27.8307 0.106211C27.839 0.0845423 27.8518 0.0648822 27.8682 0.0485333C27.8847 0.0321843 27.9044 0.0195193 27.9262 0.0113805C27.9479 0.00324162 27.9711 -0.000186291 27.9942 0.00132368H32.1599C32.1831 -0.000186291 32.2063 0.00324162 32.228 0.0113805C32.2497 0.0195193 32.2694 0.0321843 32.2859 0.0485333C32.3024 0.0648822 32.3152 0.0845423 32.3234 0.106211C32.3317 0.12788 32.3353 0.151062 32.334 0.17422L30.424 27.6256C30.4255 27.6488 30.4221 27.6722 30.4139 27.694C30.4057 27.7158 30.3929 27.7356 30.3764 27.7521C30.36 27.7685 30.3402 27.7813 30.3183 27.7895C30.2965 27.7977 30.2732 27.8012 30.25 27.7996H24.5859C24.4821 27.7996 24.413 27.7651 24.413 27.6256L23.7525 16.6755H23.0609L22.4005 27.6256C22.4005 27.7651 22.3313 27.7996 22.2264 27.7996H16.5589C16.5357 27.801 16.5125 27.7974 16.4909 27.7891C16.4692 27.7808 16.4495 27.7681 16.4332 27.7516C16.4168 27.7351 16.4042 27.7154 16.396 27.6937C16.3879 27.6719 16.3845 27.6487 16.386 27.6256L14.4749 0.17422Z" fill="white"/>
<path d="M38.1582 15.985V23.6293H42.5014C42.5246 23.628 42.5478 23.6316 42.5695 23.6398C42.5912 23.6481 42.611 23.6609 42.6274 23.6773C42.6438 23.6937 42.6566 23.7135 42.6649 23.7352C42.6732 23.7569 42.6767 23.7801 42.6754 23.8034V27.6255C42.6769 27.6488 42.6735 27.6721 42.6653 27.6939C42.6571 27.7157 42.6443 27.7355 42.6278 27.752C42.6113 27.7685 42.5915 27.7812 42.5697 27.7894C42.5479 27.7976 42.5246 27.8011 42.5014 27.7996H33.8139C33.7907 27.8009 33.7675 27.7973 33.7459 27.7891C33.7242 27.7808 33.7045 27.768 33.6882 27.7515C33.6718 27.7351 33.6592 27.7153 33.651 27.6936C33.6429 27.6719 33.6395 27.6487 33.641 27.6255V0.174149C33.6396 0.151093 33.6432 0.128016 33.6514 0.106432C33.6596 0.0848478 33.6723 0.0652459 33.6886 0.0489157C33.705 0.0325854 33.7246 0.0198968 33.7462 0.011682C33.7677 0.00346709 33.7908 -8.77046e-05 33.8139 0.0012523H42.1544C42.1775 -8.77046e-05 42.2005 0.00346709 42.2221 0.011682C42.2437 0.0198968 42.2633 0.0325854 42.2796 0.0489157C42.296 0.0652459 42.3087 0.0848478 42.3169 0.106432C42.3251 0.128016 42.3286 0.151093 42.3273 0.174149V3.99747C42.3286 4.02053 42.3251 4.0436 42.3169 4.06519C42.3087 4.08677 42.296 4.10637 42.2796 4.1227C42.2633 4.13903 42.2437 4.15172 42.2221 4.15994C42.2005 4.16815 42.1775 4.17171 42.1544 4.17037H38.1582V11.8147H41.4594C41.4825 11.8135 41.5056 11.8172 41.5272 11.8256C41.5487 11.8339 41.5683 11.8467 41.5846 11.8632C41.6009 11.8796 41.6136 11.8992 41.6218 11.9209C41.63 11.9425 41.6336 11.9656 41.6323 11.9888V15.8109C41.6338 15.8341 41.6303 15.8573 41.6222 15.879C41.6141 15.9007 41.6014 15.9205 41.585 15.9369C41.5687 15.9534 41.549 15.9662 41.5274 15.9745C41.5057 15.9827 41.4825 15.9863 41.4594 15.985H38.1582Z" fill="white"/>
<path d="M56.1244 27.6252C56.1244 27.7647 56.0553 27.7993 55.9515 27.7993H51.7813C51.6775 27.7993 51.6072 27.7647 51.6072 27.6252L51.2614 20.676H48.8282L48.4824 27.6252C48.4824 27.7647 48.4132 27.7993 48.3084 27.7993H44.1369C44.032 27.7993 43.9629 27.7647 43.9629 27.6252L45.4924 0.173873C45.4924 0.0355559 45.5616 0.000976562 45.6653 0.000976562H54.4254C54.5303 0.000976562 54.5995 0.0355559 54.5995 0.173873L56.1244 27.6252ZM49.0714 16.5057H51.0171L50.3912 4.1724H49.6996L49.0714 16.5057Z" fill="white"/>
<path d="M68.8629 27.7996H64.6235C64.5806 27.7939 64.5395 27.7783 64.5035 27.7541C64.4675 27.7299 64.4376 27.6978 64.416 27.6602C63.9642 26.9686 63.9642 25.7491 63.9642 25.0898L64.0334 15.2923H61.9482V27.6256C61.9498 27.6488 61.9463 27.6722 61.9381 27.694C61.9299 27.7158 61.9171 27.7356 61.9006 27.7521C61.8842 27.7685 61.8644 27.7813 61.8426 27.7895C61.8207 27.7977 61.7974 27.8012 61.7742 27.7996H57.6051C57.5818 27.8012 57.5585 27.7977 57.5367 27.7895C57.5149 27.7813 57.4951 27.7685 57.4786 27.7521C57.4621 27.7356 57.4494 27.7158 57.4412 27.694C57.4329 27.6722 57.4295 27.6488 57.431 27.6256V0.17422C57.4297 0.151062 57.4332 0.12788 57.4415 0.106211C57.4498 0.0845423 57.4626 0.0648822 57.4791 0.0485333C57.4955 0.0321843 57.5153 0.0195193 57.537 0.0113805C57.5587 0.00324162 57.5819 -0.000186291 57.6051 0.00132368H65.0754C67.8555 0.00132368 68.5506 2.08531 68.5506 5.56053V10.3555C68.5506 12.232 67.4729 12.7888 66.9173 12.8579V13.5495C67.4383 13.6187 68.5506 14.1742 68.5506 16.0507V25.0863C68.5506 25.6765 68.5506 26.8925 68.9678 27.5876C68.9846 27.6066 68.9953 27.6302 68.9986 27.6553C69.0019 27.6804 68.9976 27.706 68.9864 27.7287C68.9752 27.7514 68.9574 27.7703 68.9354 27.7829C68.9135 27.7956 68.8882 27.8014 68.8629 27.7996ZM64.0334 11.1209V4.17044H61.9482V11.1209H64.0334Z" fill="white"/>
</svg>
